# xmcd
#
# Track frame offsets: 
#        150
#        18112
#        35075
#        58556
#        73767
#        100605
#        120049
#        137198
#        150891
#        175655
#        200908
#        225940
#
# Disc length: 3303 seconds
#
# Revision: 0
# Processed by: cddbd v1.5.2PL0 Copyright (c) Steve Scherf et al.
# Submitted via: ExactAudioCopy v0.99pb4
#
DISCID=8d0ce50c
DTITLE=The Waybacks - Loaded
DYEAR=2008
DGENRE=Acoustic
TTITLE0=City Boy
TTITLE1=Nice to Be Alone
TTITLE2=The River
TTITLE3=Good Enough
TTITLE4=Loaded
TTITLE5=Savannah
TTITLE6=Conjugal Visit
TTITLE7=Tired of Being Right
TTITLE8=Lowdown
TTITLE9=Beyond the Northwest Passage
TTITLE10=Black Cat
TTITLE11=Russell County Gorge
EXTD=
EXTT0=
EXTT1=
EXTT2=
EXTT3=
EXTT4=
EXTT5=
EXTT6=
EXTT7=
EXTT8=
EXTT9=
EXTT10=
EXTT11=
PLAYORDER=
